<?xml version="1.0" encoding="utf-8"?>
<!-- Generator: Adobe Illustrator 27.0.0, SVG Export Plug-In . SVG Version: 6.00 Build 0)  -->
<svg version="1.1" id="Слой_1" xmlns="http://www.w3.org/2000/svg" xmlns:xlink="http://www.w3.org/1999/xlink" x="0px" y="0px"
	 viewBox="0 0 200 200" style="enable-background:new 0 0 200 200;" xml:space="preserve">
<style type="text/css">
	.st0{fill:#1B4332;}
	.st1{fill:#2D6A4F;}
	.st2{fill:#40916C;}
	.st3{fill:url(#SVGID_1_);}
</style>
<path class="st0" d="M85.1,172.8c4.3,0,7.8-3.4,7.5-7.6c-1.1-15.7-6-30.9-14.3-44.3c-8.3-13.4-19.7-24.6-33.3-32.5
	c-3.7-2.2-8.3-0.5-10.2,3.3l0,0c-1.9,3.8-0.2,8.4,3.4,10.7c10.9,6.7,20.1,15.8,26.9,26.7c6.8,10.9,10.8,23.3,11.9,36
	C77.5,169.2,80.9,172.8,85.1,172.8L85.1,172.8z"/>
<path class="st1" d="M119.8,173.6c3.9,0,7-3.1,6.9-6.9c-1-22.5-7.7-44.3-19.6-63.5C95.3,83.9,78.7,68.1,59,57.3
	c-3.4-1.9-7.6-0.4-9.2,3.1l0,0c-1.7,3.5-0.2,7.6,3.1,9.5c17.3,9.7,31.9,23.7,42.4,40.6c10.5,16.9,16.5,36.2,17.4,56
	C112.9,170.4,116,173.5,119.8,173.6L119.8,173.6z"/>
<path class="st2" d="M162.1,174c4.8,0,8.8-3.8,8.6-8.6c-1.2-30.2-10.2-59.6-26.1-85.4C128.6,54.2,106.3,33,79.8,18.5
	c-4.2-2.3-9.4-0.5-11.5,3.8l0,0c-2.1,4.3-0.3,9.5,3.9,11.9c23.5,13.1,43.4,32,57.6,55c14.2,23,22.3,49.2,23.5,76.1
	C153.4,170,157.3,173.9,162.1,174L162.1,174z"/>
<linearGradient id="SVGID_1_" gradientUnits="userSpaceOnUse" x1="166.5377" y1="17.3295" x2="28.5377" y2="17.3295" gradientTransform="matrix(0.9999 -1.261749e-02 -1.261749e-02 -0.9999 5.8978 191.5548)">
	<stop  offset="0" style="stop-color:#40916C"/>
	<stop  offset="1" style="stop-color:#1E1E1E"/>
</linearGradient>
<path class="st3" d="M39.6,168.3l127-1.6c3,0,5.5,2.4,5.6,5.4l0,0c0,3-2.4,5.5-5.4,5.6l-127,1.6c-3,0-5.5-2.4-5.6-5.4l0,0
	C34.2,170.8,36.6,168.3,39.6,168.3z"/>
</svg>
