<?xml version="1.0" encoding="utf-8"?>
<!-- Generator: Adobe Illustrator 27.0.0, SVG Export Plug-In . SVG Version: 6.00 Build 0)  -->
<svg version="1.1" id="Слой_1" xmlns="http://www.w3.org/2000/svg" xmlns:xlink="http://www.w3.org/1999/xlink" x="0px" y="0px"
	 viewBox="0 0 529 200" style="enable-background:new 0 0 529 200;" xml:space="preserve">
<style type="text/css">
	.st0{fill:#1B4332;}
	.st1{fill:#2D6A4F;}
	.st2{fill:#40916C;}
	.st3{fill:url(#SVGID_1_);}
	.st4{fill:url(#SVGID_00000078745572814626083970000015213493774430989191_);}
</style>
<path class="st0" d="M85.1,172.8c4.3,0,7.8-3.4,7.5-7.6c-1.1-15.7-6-30.9-14.3-44.3c-8.3-13.4-19.7-24.6-33.3-32.5
	c-3.7-2.2-8.3-0.5-10.2,3.3l0,0c-1.9,3.8-0.2,8.4,3.4,10.7c10.9,6.7,20.1,15.8,26.9,26.7c6.8,10.9,10.8,23.3,11.9,36
	C77.5,169.2,80.9,172.8,85.1,172.8L85.1,172.8z"/>
<path class="st1" d="M119.8,173.6c3.9,0,7-3.1,6.9-6.9c-1-22.5-7.7-44.3-19.6-63.5C95.3,83.9,78.7,68.1,59,57.3
	c-3.4-1.9-7.6-0.4-9.2,3.1l0,0c-1.7,3.5-0.2,7.6,3.1,9.5c17.3,9.7,31.9,23.7,42.4,40.6c10.5,16.9,16.5,36.2,17.4,56
	C112.9,170.4,116,173.5,119.8,173.6L119.8,173.6z"/>
<path class="st2" d="M162.1,174c4.8,0,8.8-3.8,8.6-8.6c-1.2-30.2-10.2-59.6-26.1-85.4C128.6,54.2,106.3,33,79.8,18.5
	c-4.2-2.3-9.4-0.5-11.5,3.8l0,0c-2.1,4.3-0.3,9.5,3.9,11.9c23.5,13.1,43.4,32,57.6,55c14.2,23,22.3,49.2,23.5,76.1
	C153.4,170,157.3,173.9,162.1,174L162.1,174z"/>
<linearGradient id="SVGID_1_" gradientUnits="userSpaceOnUse" x1="166.5507" y1="19.3988" x2="28.5507" y2="19.3988" gradientTransform="matrix(0.9999 -1.261749e-02 -1.261749e-02 -0.9999 5.9108 193.624)">
	<stop  offset="0" style="stop-color:#40916C"/>
	<stop  offset="1" style="stop-color:#1E1E1E"/>
</linearGradient>
<path class="st3" d="M39.6,168.3l127-1.6c3,0,5.5,2.4,5.6,5.4l0,0c0,3-2.4,5.5-5.4,5.6l-127,1.6c-3,0-5.5-2.4-5.6-5.4l0,0
	C34.2,170.8,36.6,168.3,39.6,168.3z"/>
<linearGradient id="SVGID_00000098210891053892444480000006692384453301222821_" gradientUnits="userSpaceOnUse" x1="531.3733" y1="94.2467" x2="42.3733" y2="3.2468" gradientTransform="matrix(1 0 0 -1 0 202)">
	<stop  offset="0" style="stop-color:#52B788"/>
	<stop  offset="1" style="stop-color:#1B4332"/>
</linearGradient>
<path style="fill:url(#SVGID_00000098210891053892444480000006692384453301222821_);" d="M207,177c-5.6,0-10.2-0.8-14-2.5
	c-3.8-1.7-6.7-3.9-8.7-6.6c-2-2.8-3-5.7-3.2-8.7c0-0.5,0.2-1,0.6-1.3c0.4-0.4,1-0.7,1.5-0.7h4.9c0.8,0,1.3,0.2,1.7,0.6
	c0.4,0.4,0.6,0.8,0.8,1.3c0.3,1.5,1.1,3.1,2.3,4.6c1.3,1.5,3,2.7,5.3,3.7c2.3,1,5.2,1.4,8.8,1.4c5.5,0,9.5-1,12.1-2.9
	c2.6-2,3.9-4.6,3.9-7.9c0-2.2-0.7-4-2.1-5.4c-1.3-1.4-3.4-2.7-6.2-3.7c-2.8-1.1-6.5-2.3-10.9-3.6c-4.7-1.3-8.5-2.8-11.6-4.4
	c-3.1-1.6-5.4-3.6-6.9-6c-1.5-2.4-2.2-5.4-2.2-9c0-3.5,0.9-6.5,2.8-9.2c1.9-2.8,4.5-4.9,8-6.5c3.5-1.6,7.8-2.4,12.8-2.4
	c4,0,7.4,0.5,10.4,1.6c3,1,5.5,2.4,7.5,4.2c2,1.7,3.5,3.6,4.5,5.7c1,2,1.6,3.9,1.6,5.9c0,0.4-0.2,0.9-0.5,1.3
	c-0.3,0.4-0.8,0.6-1.5,0.6h-5.1c-0.4,0-0.9-0.1-1.4-0.4c-0.4-0.3-0.8-0.7-1.1-1.4c-0.4-2.6-1.9-4.8-4.4-6.6c-2.6-1.8-5.9-2.7-10-2.7
	c-4.2,0-7.6,0.8-10.2,2.4c-2.6,1.6-3.8,4.1-3.8,7.5c0,2.2,0.6,4,1.8,5.5c1.2,1.4,3.1,2.7,5.8,3.7c2.6,1.1,6,2.2,10.3,3.5
	c5.1,1.4,9.3,2.9,12.6,4.5c3.3,1.5,5.7,3.5,7.2,5.9c1.6,2.3,2.4,5.3,2.4,8.9c0,4-1.1,7.5-3.2,10.4c-2.1,2.8-5.1,5-8.9,6.5
	C216.6,176.2,212.1,177,207,177z M247.3,176c-0.7,0-1.2-0.2-1.6-0.6c-0.4-0.4-0.6-1-0.6-1.6v-62.7c0-0.7,0.2-1.2,0.6-1.6
	c0.4-0.4,0.9-0.7,1.6-0.7h24.4c4.7,0,8.8,0.8,12.3,2.3c3.5,1.5,6.2,3.8,8.2,6.9c1.9,3,2.9,6.8,2.9,11.3c0,4.5-1,8.3-2.9,11.3
	c-1.9,3-4.6,5.3-8.2,6.8c-3.5,1.5-7.6,2.3-12.3,2.3h-17v24c0,0.6-0.2,1.2-0.7,1.6c-0.4,0.4-0.9,0.6-1.6,0.6H247.3z M254.6,141.7
	h16.6c4.7,0,8.3-1.1,10.7-3.2c2.4-2.1,3.6-5.2,3.6-9.2c0-4-1.2-7-3.5-9.2c-2.3-2.2-5.9-3.3-10.8-3.3h-16.6V141.7z M307.7,176
	c-0.6,0-1.2-0.2-1.6-0.6c-0.4-0.4-0.6-1-0.6-1.6V110c0-0.6,0.2-1.2,0.6-1.5c0.4-0.4,1-0.7,1.6-0.7h4.5c0.7,0,1.2,0.2,1.6,0.7
	c0.4,0.4,0.6,0.9,0.6,1.5v63.7c0,0.6-0.2,1.2-0.6,1.6c-0.4,0.4-0.9,0.6-1.6,0.6H307.7z M342.7,177c-3.2,0-6.1-0.6-8.7-1.9
	c-2.6-1.3-4.7-3-6.3-5.2c-1.6-2.2-2.4-4.6-2.4-7.4c0-4.4,1.8-7.9,5.4-10.6c3.6-2.6,8.3-4.4,14-5.2l14.3-2v-2.8
	c0-3.1-0.9-5.5-2.7-7.2c-1.7-1.7-4.6-2.6-8.5-2.6c-2.9,0-5.2,0.6-7,1.7c-1.7,1.2-2.9,2.6-3.6,4.4c-0.4,1-1.1,1.4-2,1.4h-4.3
	c-0.7,0-1.2-0.2-1.6-0.6c-0.3-0.4-0.5-1-0.5-1.5c0-1,0.4-2.1,1.1-3.6c0.8-1.4,1.9-2.8,3.5-4.1c1.5-1.3,3.5-2.5,5.9-3.4
	c2.4-1,5.4-1.4,8.8-1.4c3.8,0,7.1,0.5,9.7,1.5c2.6,1,4.7,2.3,6.1,3.9c1.5,1.7,2.6,3.6,3.3,5.7c0.7,2.1,1.1,4.3,1.1,6.4v31.1
	c0,0.6-0.2,1.2-0.7,1.6c-0.4,0.4-0.9,0.6-1.5,0.6h-4.4c-0.7,0-1.2-0.2-1.6-0.6c-0.4-0.4-0.6-1-0.6-1.6v-4.1c-0.8,1.2-2,2.3-3.4,3.5
	c-1.4,1.1-3.2,2-5.3,2.8C348.3,176.6,345.8,177,342.7,177z M344.7,169.8c2.6,0,5-0.5,7.2-1.6c2.2-1.2,3.9-2.9,5.1-5.3
	c1.3-2.4,1.9-5.3,1.9-8.9v-2.7l-11.1,1.6c-4.5,0.6-8,1.7-10.3,3.3c-2.3,1.5-3.5,3.4-3.5,5.7c0,1.8,0.5,3.3,1.5,4.5
	c1.1,1.2,2.4,2,4,2.6C341.3,169.5,343,169.8,344.7,169.8z M389.4,194.2c-0.5,0-1-0.2-1.3-0.6s-0.6-0.8-0.6-1.3c0-0.3,0-0.5,0.1-0.8
	c0.1-0.3,0.2-0.6,0.4-1l7.4-17.6L377,129.7c-0.3-0.8-0.5-1.3-0.5-1.6c0-0.6,0.2-1.1,0.6-1.4c0.4-0.4,0.9-0.6,1.4-0.6h4.7
	c0.6,0,1.2,0.2,1.5,0.5s0.6,0.7,0.8,1.2l14.6,34.9l15-34.9c0.2-0.4,0.4-0.8,0.8-1.2c0.4-0.3,0.9-0.5,1.6-0.5h4.5
	c0.6,0,1.1,0.2,1.4,0.6c0.4,0.4,0.6,0.8,0.6,1.3c0,0.3-0.2,0.9-0.5,1.7l-27.3,62.9c-0.2,0.4-0.5,0.8-0.9,1.2
	c-0.3,0.3-0.8,0.5-1.5,0.5H389.4z M451.8,177c-6.6,0-11.8-2-15.7-6c-3.9-4.1-6-9.7-6.4-16.7c-0.1-0.8-0.1-1.9-0.1-3.2
	c0-1.3,0-2.4,0.1-3.3c0.3-4.5,1.3-8.5,3.2-11.9c1.9-3.5,4.4-6.1,7.6-8c3.3-1.9,7.1-2.8,11.4-2.8c4.9,0,8.9,1,12.2,3.1
	c3.3,2,5.9,5,7.6,8.7s2.6,8.2,2.6,13.2v1.6c0,0.7-0.2,1.2-0.7,1.6c-0.4,0.4-0.9,0.6-1.5,0.6h-33.2c0,0.1,0,0.2,0,0.4s0,0.4,0,0.5
	c0.1,2.6,0.7,5.1,1.7,7.4c1,2.2,2.5,4.1,4.4,5.5c1.9,1.4,4.2,2.1,6.9,2.1c2.3,0,4.2-0.4,5.8-1.1c1.5-0.7,2.8-1.5,3.7-2.3
	c1-0.9,1.6-1.6,1.9-2c0.6-0.8,1-1.3,1.3-1.4c0.3-0.2,0.8-0.3,1.5-0.3h4.6c0.6,0,1.2,0.2,1.5,0.6c0.4,0.3,0.6,0.8,0.6,1.4
	c-0.1,1-0.6,2.1-1.5,3.6c-1,1.3-2.3,2.7-4.1,4c-1.8,1.3-4,2.5-6.5,3.4C458,176.5,455.1,177,451.8,177z M438.7,147.4H465v-0.3
	c0-2.9-0.5-5.4-1.6-7.7c-1-2.2-2.5-4-4.5-5.3c-2-1.3-4.4-2-7.1-2c-2.8,0-5.1,0.7-7.1,2c-1.9,1.3-3.4,3-4.4,5.3
	c-1,2.2-1.5,4.8-1.5,7.7V147.4z M487.8,176c-0.6,0-1.2-0.2-1.6-0.6c-0.4-0.4-0.6-1-0.6-1.6v-45.4c0-0.6,0.2-1.2,0.6-1.6
	c0.4-0.4,1-0.7,1.6-0.7h4.4c0.6,0,1.2,0.2,1.6,0.7c0.4,0.4,0.7,1,0.7,1.6v4.2c1.3-2.2,3-3.8,5.3-4.9c2.2-1.1,4.9-1.6,8.1-1.6h3.8
	c0.6,0,1.2,0.2,1.5,0.7c0.4,0.4,0.6,0.9,0.6,1.5v3.9c0,0.6-0.2,1.2-0.6,1.5c-0.4,0.4-0.9,0.6-1.5,0.6H506c-3.5,0-6.2,1-8.2,3.1
	c-2,2-3,4.7-3,8.2v28.2c0,0.6-0.2,1.2-0.7,1.6c-0.4,0.4-1,0.6-1.6,0.6H487.8z"/>
</svg>
